<svg width="24" height="24" viewBox="0 0 24 24" fill="none" xmlns="http://www.w3.org/2000/svg">
<path fill-rule="evenodd" clip-rule="evenodd" d="M9.06903 9.20564C7.48348 9.199 6.2002 7.91162 6.2002 6.32451C6.2002 4.7333 7.49013 3.44336 9.08135 3.44336H14.9933C16.5846 3.44336 17.8745 4.7333 17.8745 6.32451C17.8745 7.91162 16.5912 9.199 15.0057 9.20564C16.5912 9.21228 17.8745 10.4997 17.8745 12.0868C17.8745 13.678 16.5846 14.9679 14.9933 14.9679H14.9185C13.3287 14.9679 12.0396 13.6802 12.0373 12.0909V17.8116C12.0373 19.4235 10.7118 20.7302 9.09994 20.7302C7.50872 20.7302 6.2002 19.4403 6.2002 17.849C6.2002 16.262 7.48339 14.9746 9.06887 14.9679C7.48339 14.9612 6.2002 13.6738 6.2002 12.0868C6.2002 10.4997 7.48348 9.21228 9.06903 9.20564ZM12.0373 12.0827C12.0396 10.4993 13.319 9.21533 14.9005 9.20567H12.0373V12.0827Z" fill="#363538"/>
</svg>
