<?xml version="1.0" encoding="UTF-8"?>
<svg id="Capa_2" data-name="Capa 2" xmlns="http://www.w3.org/2000/svg" viewBox="0 0 423.12 356.89">
  <defs>
    <style>
      .cls-1 {
        fill: #fff;
        stroke-width: 0px;
      }
    </style>
  </defs>
  <g id="Capa_1-2" data-name="Capa 1">
    <g>
      <path class="cls-1" d="m244.85,134.88c-17.71,0-25.86,22.85-25.86,43.57s8.15,43.57,25.86,43.57,25.86-22.85,25.86-43.57-7.97-43.57-25.86-43.57Z"/>
      <path class="cls-1" d="m334,4.29c-46.45-11.44-86.32,1.43-119.06,36.29-3.78,4.03-3.54,4.02-7.38-.04C174.03,4.96,133.15-8.26,86.15,5.12,39.23,18.48,11.16,51.02,1.3,98.96c-.5,2.42-.87,4.86-1.3,7.29v29.71c1.64,14.07,4.07,27.99,8.36,41.53,11.88,37.49,33.49,68.79,61.67,95.71,38.33,36.62,83.2,62.78,132.4,81.97,6.56,2.56,12.32,2.21,18.6-.58,35.09-15.61,67.89-35.05,98.32-58.46,23.65-18.19,45.13-38.59,63.02-62.59,20.55-27.59,34.36-57.97,39.29-92.31,10.06-70.06-33.05-123.47-87.66-136.92Zm-162.11,241.28h-29.75v-109.27h-20.55v-17.89l35.42-7.08h14.88v134.24Zm72.96,2.83c-36.13,0-56.5-28.87-56.5-69.96s20.9-69.96,56.5-69.96,56.67,28.87,56.67,69.96-20.9,69.96-56.67,69.96Z"/>
    </g>
  </g>
</svg>