<svg width="24" height="24" viewBox="0 0 24 24" fill="none" xmlns="http://www.w3.org/2000/svg">
<path fill-rule="evenodd" clip-rule="evenodd" d="M2 12C2 8.26154 2 6.3923 2.80385 5C3.33046 4.08788 4.08788 3.33046 5 2.80385C6.3923 2 8.26154 2 12 2C15.7385 2 17.6077 2 19 2.80385C19.9121 3.33046 20.6695 4.08788 21.1962 5C22 6.3923 22 8.26154 22 12C22 15.7385 22 17.6077 21.1962 19C20.6695 19.9121 19.9121 20.6695 19 21.1962C17.6077 22 15.7385 22 12 22C8.26154 22 6.3923 22 5 21.1962C4.08788 20.6695 3.33046 19.9121 2.80385 19C2 17.6077 2 15.7385 2 12ZM13.0254 18.6001V12.3442C13.1513 12.1482 13.3172 11.9957 13.5231 11.8868C13.729 11.778 13.9807 11.7235 14.2782 11.7235C14.5585 11.7235 14.7959 11.7589 14.9904 11.8297C15.1849 11.9005 15.3337 12.0311 15.4366 12.2217C15.5396 12.4068 15.5911 12.6763 15.5911 13.0302V18.6001H18.5V13.0384C18.5 12.3959 18.4285 11.8569 18.2855 11.4213C18.1482 10.9803 17.948 10.6264 17.6848 10.3596C17.4274 10.0928 17.1185 9.89955 16.7581 9.77977C16.4034 9.65999 16.0116 9.6001 15.5825 9.6001C15.0448 9.6001 14.5557 9.6981 14.1152 9.89411C13.6804 10.0847 13.3057 10.3651 12.9911 10.7353C12.975 10.7542 12.9592 10.7733 12.9435 10.7926L12.8452 9.76344H10.1337V18.6001H13.0254ZM8.40033 9.76344V18.6001H5.5V9.76344H8.40033ZM7.00002 8.5999C7.88368 8.5999 8.60002 7.88356 8.60002 6.9999C8.60002 6.11625 7.88368 5.3999 7.00002 5.3999C6.11637 5.3999 5.40002 6.11625 5.40002 6.9999C5.40002 7.88356 6.11637 8.5999 7.00002 8.5999Z" fill="#363538"/>
</svg>
