<svg width="24" height="24" viewBox="0 0 24 24" fill="none" xmlns="http://www.w3.org/2000/svg">
<path fill-rule="evenodd" clip-rule="evenodd" d="M5.04362 20.6947L5.5 17.5L4.66042 15.8208C3.05039 12.6008 3.5412 8.72764 5.90352 6.01097C9.22622 2.18986 15.0647 1.91148 18.7359 5.3991L18.9919 5.64229C20.8976 7.45271 21.8989 10.0172 21.724 12.64C21.3507 18.2392 15.9228 22.0784 10.519 20.5653L8.5 20L5.29655 20.9153C5.15723 20.9551 5.02313 20.8381 5.04362 20.6947ZM8.81146 8.497L8.44059 9.3657C8.14272 10.0634 8.04448 10.8398 8.33288 11.5417C8.67931 12.3847 9.34323 13.5831 10.5722 14.6787C11.8011 15.7743 13.0655 16.2949 13.9408 16.5409C14.6695 16.7458 15.4265 16.5567 16.0822 16.178L16.9259 15.6907C17.4978 15.3603 17.5873 14.5687 17.1037 14.1178L16.4569 13.4986C16.1001 13.1659 15.5525 13.1504 15.1779 13.4625C14.7578 13.8126 13.8428 14.278 13.3652 14.012C13.0802 13.8533 12.4023 13.3309 12.1827 13.1351C11.9278 12.9079 11.2965 12.2351 11.0895 11.9361C10.8251 11.5543 11.1265 10.6863 11.3089 10.259L11.4236 9.99456C11.5897 9.60542 11.491 9.15503 11.1754 8.87374L10.3641 8.14939C9.8637 7.70333 9.07491 7.87993 8.81146 8.497Z" fill="#363538"/>
</svg>
